<svg width="19" height="19" viewBox="0 0 19 19" fill="none" xmlns="http://www.w3.org/2000/svg">
<path d="M18.6143 17.0083L14.9143 13.3287C15.9143 12.0359 16.6143 10.3453 16.6143 8.4558C16.6143 4.08011 13.0143 0.5 8.61426 0.5C4.21426 0.5 0.614258 4.17956 0.614258 8.55525C0.614258 12.9309 4.21426 16.511 8.61426 16.511C10.4143 16.511 12.1143 15.9144 13.5143 14.8204L17.2143 18.5L18.6143 17.0083ZM8.61426 14.5221C5.31426 14.5221 2.61426 11.837 2.61426 8.55525C2.61426 5.27348 5.31426 2.5884 8.61426 2.5884C11.9143 2.5884 14.6143 5.27348 14.6143 8.55525C14.6143 11.837 11.9143 14.5221 8.61426 14.5221Z" fill="black"/>
</svg>
